<?xml version="1.0" encoding="utf-8"?>
<!-- Generator: Adobe Illustrator 22.0.1, SVG Export Plug-In . SVG Version: 6.00 Build 0)  -->
<svg version="1.1" id="Capa_1" xmlns="http://www.w3.org/2000/svg" xmlns:xlink="http://www.w3.org/1999/xlink" x="0px" y="0px"
	 viewBox="0 0 300 51" style="enable-background:new 0 0 300 51;" xml:space="preserve">
<style type="text/css">
	.st0{fill:#1E2D5B;stroke:#FFFFFF;stroke-miterlimit:10;}
</style>
<g>
	<path class="st0" d="M14.4,10.3h9.2l-4,20.2H32l-1.4,7.1H9L14.4,10.3z"/>
	<path class="st0" d="M39.2,36.8c-1.7-0.8-3.1-2-4-3.5c-0.9-1.5-1.4-3.2-1.4-5.2c0-2.3,0.6-4.4,1.7-6.3c1.1-1.9,2.7-3.3,4.7-4.4
		c2-1.1,4.3-1.6,6.8-1.6c2.3,0,4.4,0.4,6.1,1.2c1.7,0.8,3.1,2,4,3.5c0.9,1.5,1.4,3.2,1.4,5.2c0,2.3-0.6,4.4-1.7,6.3
		c-1.1,1.9-2.7,3.3-4.7,4.4c-2,1.1-4.3,1.6-6.8,1.6C43,38,40.9,37.6,39.2,36.8z M48.6,29.8c0.7-0.9,1.1-2.1,1.1-3.5
		c0-1-0.3-1.8-0.8-2.4c-0.6-0.6-1.3-0.9-2.3-0.9c-1.1,0-2.1,0.4-2.8,1.3c-0.7,0.9-1.1,2.1-1.1,3.5c0,1,0.3,1.8,0.8,2.4
		c0.6,0.6,1.3,0.9,2.3,0.9C46.9,31.1,47.9,30.6,48.6,29.8z"/>
	<path class="st0" d="M78.8,15.9l-1.6,7.8c-0.6-0.1-1.3-0.2-1.9-0.2c-1.5,0-2.7,0.3-3.6,1s-1.5,1.7-1.8,3.2l-2,9.9h-8.8l4.3-21.3
		h8.3l-0.4,2.2C73,16.8,75.5,15.9,78.8,15.9z"/>
	<path class="st0" d="M101.3,29H86.4c0.2,0.9,0.6,1.5,1.3,1.9c0.7,0.4,1.6,0.6,2.8,0.6c1.8,0,3.3-0.5,4.6-1.5l3.7,5.3
		c-2.6,1.8-5.7,2.7-9.3,2.7c-2.3,0-4.4-0.4-6.1-1.2c-1.8-0.8-3.2-1.9-4.1-3.4c-1-1.5-1.5-3.2-1.5-5.2c0-2.3,0.6-4.4,1.7-6.3
		c1.1-1.9,2.7-3.3,4.7-4.4c2-1.1,4.3-1.6,6.9-1.6c2.2,0,4.2,0.4,5.8,1.2c1.6,0.8,2.9,1.9,3.7,3.3s1.3,3,1.3,4.9
		C101.8,26.5,101.6,27.7,101.3,29z M88.1,22.7c-0.6,0.5-1.1,1.2-1.4,2.1h7c0-0.9-0.3-1.6-0.9-2.1c-0.6-0.5-1.3-0.8-2.3-0.8
		S88.8,22.2,88.1,22.7z"/>
	<path class="st0" d="M139.3,17.8c1.4,1.3,2,3.1,2,5.4c0,0.9-0.1,1.8-0.3,2.7l-2.3,11.8h-8.8l2.1-10.6c0.1-0.4,0.2-0.9,0.2-1.3
		c0-0.8-0.2-1.4-0.5-1.8c-0.3-0.4-0.8-0.6-1.4-0.6c-1.8,0-2.9,1.2-3.4,3.7l-2.1,10.6H116l2.1-10.6c0.1-0.4,0.2-0.9,0.2-1.3
		c0-0.8-0.2-1.4-0.5-1.8c-0.3-0.4-0.8-0.6-1.4-0.6c-1.8,0-2.9,1.3-3.5,3.9l-2.1,10.4H102l4.3-21.3h8.3l-0.4,2.1
		c0.9-0.8,1.8-1.4,2.9-1.9c1-0.4,2.1-0.6,3.2-0.6c1.3,0,2.5,0.3,3.7,0.9c1.1,0.6,2,1.4,2.6,2.5c0.9-1.1,2-1.9,3.3-2.5
		s2.7-0.9,4.2-0.9C136.2,15.9,137.9,16.5,139.3,17.8z"/>
	<path class="st0" d="M160,10.3h9.2l-5.5,27.3h-9.2L160,10.3z"/>
	<path class="st0" d="M190.1,17.1c1.4,0.8,2.5,1.9,3.3,3.4c0.8,1.5,1.3,3.3,1.3,5.3c0,2.3-0.5,4.4-1.5,6.2c-1,1.9-2.4,3.3-4.2,4.4
		c-1.7,1.1-3.6,1.6-5.7,1.6c-2.9,0-4.9-0.9-6.1-2.7l-2,9.8h-8.8l5.8-28.9h8.3l-0.4,2c1.6-1.6,3.5-2.3,5.8-2.3
		C187.3,15.9,188.7,16.3,190.1,17.1z M184.6,29.8c0.7-0.9,1.1-2.1,1.1-3.5c0-1-0.3-1.8-0.8-2.4c-0.6-0.6-1.3-0.9-2.3-0.9
		c-1.1,0-2.1,0.4-2.8,1.3c-0.7,0.9-1.1,2.1-1.1,3.5c0,1,0.3,1.8,0.8,2.4c0.6,0.6,1.3,0.9,2.3,0.9C183,31.1,183.9,30.6,184.6,29.8z"
		/>
	<path class="st0" d="M198.8,37.5c-1.7-0.4-3.1-0.8-4-1.4l3-6c1,0.6,2.2,1.1,3.5,1.4c1.3,0.3,2.6,0.5,3.9,0.5c1.7,0,2.6-0.3,2.6-1
		c0-0.3-0.2-0.5-0.7-0.6c-0.5-0.1-1.2-0.3-2.2-0.4c-1.5-0.2-2.8-0.5-3.9-0.8c-1.1-0.3-2-0.9-2.8-1.7s-1.2-2-1.2-3.4
		c0-2.6,1.1-4.6,3.4-6c2.2-1.4,5.1-2.1,8.7-2.1c1.6,0,3.1,0.1,4.5,0.4c1.4,0.3,2.7,0.7,3.8,1.2l-3,6c-1.8-1.1-4-1.6-6.4-1.6
		c-0.9,0-1.6,0.1-2,0.3c-0.4,0.2-0.6,0.5-0.6,0.7c0,0.3,0.2,0.5,0.7,0.6c0.4,0.1,1.2,0.3,2.3,0.5c1.5,0.2,2.8,0.5,3.8,0.8
		c1.1,0.3,2,0.9,2.8,1.7c0.8,0.8,1.2,1.9,1.2,3.4c0,1.7-0.5,3.2-1.6,4.4c-1.1,1.2-2.5,2.1-4.3,2.7c-1.8,0.6-3.8,0.9-6.1,0.9
		C202.3,38,200.5,37.8,198.8,37.5z"/>
	<path class="st0" d="M244.9,16.3l-4.3,21.3h-8.3l0.4-2.1c-0.9,0.9-1.9,1.5-3,1.9c-1.1,0.4-2.2,0.6-3.3,0.6c-2.3,0-4.1-0.6-5.5-1.9
		s-2.1-3-2.1-5.4c0-0.9,0.1-1.8,0.3-2.7l2.3-11.8h8.8L228.1,27c-0.1,0.6-0.2,1.1-0.2,1.3c0,1.5,0.7,2.3,2.1,2.3c2,0,3.3-1.4,3.9-4.1
		l2.1-10.3H244.9z"/>
	<path class="st0" d="M281.8,17.8c1.4,1.3,2,3.1,2,5.4c0,0.9-0.1,1.8-0.3,2.7l-2.3,11.8h-8.8l2.1-10.6c0.1-0.4,0.2-0.9,0.2-1.3
		c0-0.8-0.2-1.4-0.5-1.8c-0.3-0.4-0.8-0.6-1.4-0.6c-1.8,0-2.9,1.2-3.4,3.7l-2.1,10.6h-8.8l2.1-10.6c0.1-0.4,0.2-0.9,0.2-1.3
		c0-0.8-0.2-1.4-0.5-1.8s-0.8-0.6-1.4-0.6c-1.8,0-2.9,1.3-3.5,3.9l-2.1,10.4h-8.8l4.3-21.3h8.3l-0.4,2.1c0.9-0.8,1.8-1.4,2.9-1.9
		c1-0.4,2.1-0.6,3.2-0.6c1.3,0,2.5,0.3,3.7,0.9c1.1,0.6,2,1.4,2.6,2.5c0.9-1.1,2-1.9,3.3-2.5c1.3-0.6,2.7-0.9,4.2-0.9
		C278.6,15.9,280.4,16.5,281.8,17.8z"/>
</g>
</svg>
